<svg width="18" height="22" viewBox="0 0 18 22" fill="none" xmlns="http://www.w3.org/2000/svg"><path fill-rule="evenodd" clip-rule="evenodd" d="M15.224 12.63c-.895.323-1.741.765-2.517 1.315-.066-.091-.132-.185-.2-.27l-1.558-1.948a7.52 7.52 0 0 1 6.294-3.494 7.455 7.455 0 0 1-2.02 4.397zm-2.12-4.856a7.656 7.656 0 0 0-.596-.878L10.82 4.788a8.09 8.09 0 0 1 4.955-1.825h.716a8.77 8.77 0 0 1-1.43 4.052 8.992 8.992 0 0 0-1.958.76zM9.587 3.25a.753.753 0 0 0-1.176 0l-.29.362a10.63 10.63 0 0 0-.987-.695L9 .583l1.866 2.342c-.341.212-.67.443-.986.691l-.292-.366zM5.492 6.898a7.655 7.655 0 0 0-.596.878 8.989 8.989 0 0 0-1.965-.76 8.773 8.773 0 0 1-1.426-4.052h.72a8.03 8.03 0 0 1 4.957 1.82l-1.69 2.114zm1.559 4.829l-1.56 1.945c-.067.085-.133.18-.199.27a10.575 10.575 0 0 0-2.516-1.312 7.455 7.455 0 0 1-2.02-4.393 7.52 7.52 0 0 1 6.295 3.49zm1.162 10.028A9.051 9.051 0 0 1 0 13.54a9.05 9.05 0 0 1 8.213 8.215zm1.255-11.85a.753.753 0 0 0-1.058.118l-.37.464a9.022 9.022 0 0 0-1.87-1.912 6.1 6.1 0 0 1 .495-.737L9 4.922l2.33 2.916c.183.233.348.48.495.737a9.02 9.02 0 0 0-1.868 1.912l-.371-.464a.754.754 0 0 0-.118-.117zm-3.014 4.998c.07-.1.14-.199.212-.288L9 11.7l2.332 2.916c.071.089.141.188.211.288A10.562 10.562 0 0 0 9 18.654a10.563 10.563 0 0 0-2.546-3.75zM18 13.54a9.04 9.04 0 0 1-8.214 8.215A9.05 9.05 0 0 1 18 13.54z" fill="#C59E57"/></svg>