<svg width="10" height="10" viewBox="0 0 10 10" fill="none" xmlns="http://www.w3.org/2000/svg"><path fill-rule="evenodd" clip-rule="evenodd" d="M7.303 3.38c-.176.373-.3.77-.37 1.176-.048-.007-.097-.016-.143-.02L5.723 4.42a3.3 3.3 0 0 1 .864-3.006c.45.555.701 1.246.716 1.965zm-2.12-.831a3.257 3.257 0 0 0-.448-.085L3.581 2.34A3.547 3.547 0 0 1 4.54.256l.22-.22c.397.483.67 1.06.79 1.678a3.953 3.953 0 0 0-.368.835zm-2.445-.3a.33.33 0 0 0-.36.362l.022.2a4.694 4.694 0 0 0-.512.092L1.75 1.615l1.28.141c-.04.17-.07.342-.092.515l-.2-.022zm-.146 2.377c.018.152.046.303.084.452-.29.09-.57.216-.831.373a3.728 3.728 0 0 1-1.663-.799l.22-.222a3.475 3.475 0 0 1 2.066-.97l.124 1.166zm1.94.995l.113 1.075c.005.046.014.096.021.144a4.536 4.536 0 0 0-1.167.374 3.168 3.168 0 0 1-1.948-.72 3.238 3.238 0 0 1 2.98-.873zm3.394 2.706a3.871 3.871 0 0 1-5 .02 3.87 3.87 0 0 1 5-.02zM4.72 4.32a.33.33 0 0 0-.288.362l.027.256a3.85 3.85 0 0 0-1.15-.01 2.653 2.653 0 0 1-.072-.377l-.171-1.61 1.596.174c.126.015.252.039.374.072-.054.386-.05.776.01 1.16L4.79 4.32a.323.323 0 0 0-.071 0zm.593 2.455a2.227 2.227 0 0 1-.022-.153l-.171-1.61 1.596.173c.05.005.1.014.152.023-.02.663.103 1.321.36 1.93a4.493 4.493 0 0 0-1.915-.363zm3.115-3.973c1.207 1.453 1.198 3.578-.02 5.04-1.205-1.453-1.197-3.577.02-5.04z" fill="#C59E57"/></svg>