<svg width="106" height="125" viewBox="0 0 106 125" fill="none" xmlns="http://www.w3.org/2000/svg"><g opacity=".2" fill-rule="evenodd" clip-rule="evenodd" fill="#fff"><path d="M89.65 71.129a61.868 61.868 0 0 0-14.82 7.762c-.39-.538-.775-1.094-1.174-1.596l-9.18-11.5c8.057-12.746 22.017-20.514 37.064-20.628a44.065 44.065 0 0 1-11.89 25.962zm-12.487-28.67a45.229 45.229 0 0 0-3.507-5.183l-9.939-12.448a47.566 47.566 0 0 1 29.179-10.776h4.216a51.86 51.86 0 0 1-8.423 23.922 52.872 52.872 0 0 0-11.526 4.485zM56.46 15.746a4.424 4.424 0 0 0-6.924 0l-1.707 2.138a62.601 62.601 0 0 0-5.812-4.103L52.997 0l10.99 13.83a64.85 64.85 0 0 0-5.803 4.081l-1.724-2.165zM32.34 37.285a45.208 45.208 0 0 0-3.507 5.183 52.85 52.85 0 0 0-11.575-4.49 51.88 51.88 0 0 1-8.396-23.917H13.1a47.22 47.22 0 0 1 29.196 10.745L32.34 37.285zm9.18 28.51l-9.18 11.482c-.4.502-.785 1.063-1.175 1.6a61.94 61.94 0 0 0-14.82-7.748 44.065 44.065 0 0 1-11.89-25.94c15.043.11 29.002 7.87 37.066 20.605zM48.365 125C22.66 122.708 2.285 102.277 0 76.499 25.707 78.787 46.083 99.221 48.365 125zm7.392-69.957a4.425 4.425 0 0 0-6.23.695l-2.186 2.739a53.206 53.206 0 0 0-10.998-11.292 36.007 36.007 0 0 1 2.912-4.348L52.998 25.62l13.725 17.217a36.031 36.031 0 0 1 2.912 4.348 53.203 53.203 0 0 0-10.998 11.292l-2.186-2.739a4.445 4.445 0 0 0-.694-.695zM38.01 84.55a30.09 30.09 0 0 1 1.245-1.703L52.998 65.63l13.734 17.217a31.86 31.86 0 0 1 1.245 1.703 62.364 62.364 0 0 0-14.98 22.143A62.368 62.368 0 0 0 38.01 84.55zM106 76.499c-2.258 25.792-22.65 46.239-48.37 48.501C59.911 99.219 80.29 78.784 106 76.499z"/><path d="M89.65 71.129a61.868 61.868 0 0 0-14.82 7.762c-.39-.538-.775-1.094-1.174-1.596l-9.18-11.5c8.057-12.746 22.017-20.514 37.064-20.628a44.065 44.065 0 0 1-11.89 25.962zm-12.487-28.67a45.229 45.229 0 0 0-3.507-5.183l-9.939-12.448a47.566 47.566 0 0 1 29.179-10.776h4.216a51.86 51.86 0 0 1-8.423 23.922 52.872 52.872 0 0 0-11.526 4.485zM56.46 15.746a4.424 4.424 0 0 0-6.924 0l-1.707 2.138a62.601 62.601 0 0 0-5.812-4.103L52.997 0l10.99 13.83a64.85 64.85 0 0 0-5.803 4.081l-1.724-2.165zM32.34 37.285a45.208 45.208 0 0 0-3.507 5.183 52.85 52.85 0 0 0-11.575-4.49 51.88 51.88 0 0 1-8.396-23.917H13.1a47.22 47.22 0 0 1 29.196 10.745L32.34 37.285zm9.18 28.51l-9.18 11.482c-.4.502-.785 1.063-1.175 1.6a61.94 61.94 0 0 0-14.82-7.748 44.065 44.065 0 0 1-11.89-25.94c15.043.11 29.002 7.87 37.066 20.605zM48.365 125C22.66 122.708 2.285 102.277 0 76.499 25.707 78.787 46.083 99.221 48.365 125zm7.392-69.957a4.425 4.425 0 0 0-6.23.695l-2.186 2.739a53.206 53.206 0 0 0-10.998-11.292 36.007 36.007 0 0 1 2.912-4.348L52.998 25.62l13.725 17.217a36.031 36.031 0 0 1 2.912 4.348 53.203 53.203 0 0 0-10.998 11.292l-2.186-2.739a4.445 4.445 0 0 0-.694-.695zM38.01 84.55a30.09 30.09 0 0 1 1.245-1.703L52.998 65.63l13.734 17.217a31.86 31.86 0 0 1 1.245 1.703 62.364 62.364 0 0 0-14.98 22.143A62.368 62.368 0 0 0 38.01 84.55zM106 76.499c-2.258 25.792-22.65 46.239-48.37 48.501C59.911 99.219 80.29 78.784 106 76.499z"/></g></svg>