<svg width="25" height="21" viewBox="0 0 25 21" fill="none" xmlns="http://www.w3.org/2000/svg">
<path d="M1.83333 1.83333H2.74999V0H4.58333V1.83333H13.75V0H15.5833V1.83333H16.5C17.5083 1.83333 18.3333 2.65833 18.3333 3.66667V18.3333C18.3333 19.3417 17.5083 20.1667 16.5 20.1667H1.83333C0.824995 20.1667 -5.72205e-06 19.3417 -5.72205e-06 18.3333V3.66667C-5.72205e-06 2.65833 0.824995 1.83333 1.83333 1.83333ZM1.83333 18.3333H16.5V6.41667H1.83333V18.3333Z" fill="white"/>
<path d="M24.3536 12.3536C24.5488 12.1583 24.5488 11.8417 24.3536 11.6464L21.1716 8.46447C20.9763 8.2692 20.6597 8.2692 20.4645 8.46447C20.2692 8.65973 20.2692 8.97631 20.4645 9.17157L23.2929 12L20.4645 14.8284C20.2692 15.0237 20.2692 15.3403 20.4645 15.5355C20.6597 15.7308 20.9763 15.7308 21.1716 15.5355L24.3536 12.3536ZM12 12.5L24 12.5V11.5L12 11.5V12.5Z" fill="white"/>
</svg>
