<svg width="151" height="80" viewBox="0 0 151 80" fill="none" xmlns="http://www.w3.org/2000/svg">
<path d="M16 27.1429L6 40L16 52.8571L14 58L0 40L14 22L16 27.1429Z" fill="#585858"/>
<path d="M135 52.8571L145 40L135 27.1429L137 22L151 40L137 58L135 52.8571Z" fill="#585858"/>
<rect x="36" width="80" height="80" fill="#FFB23F"/>
<path d="M61 58C61 58 58 58 58 55C58 52 61 43 76 43C91 43 94 52 94 55C94 58 91 58 91 58H61ZM76 40C78.3869 40 80.6761 39.0518 82.364 37.364C84.0518 35.6761 85 33.3869 85 31C85 28.6131 84.0518 26.3239 82.364 24.636C80.6761 22.9482 78.3869 22 76 22C73.6131 22 71.3239 22.9482 69.636 24.636C67.9482 26.3239 67 28.6131 67 31C67 33.3869 67.9482 35.6761 69.636 37.364C71.3239 39.0518 73.6131 40 76 40Z" fill="white"/>
</svg>
