<svg width="14" height="14" viewBox="0 0 14 14" fill="none" xmlns="http://www.w3.org/2000/svg">
<circle cx="7" cy="7" r="6.5" stroke="#C4C4C4"/>
<path d="M6.22 8.68C6.22 8.32 6.3 8.02333 6.46 7.79C6.62667 7.55 6.86667 7.29 7.18 7.01C7.42 6.79667 7.59667 6.61333 7.71 6.46C7.83 6.3 7.89 6.12 7.89 5.92C7.89 5.64 7.77667 5.41333 7.55 5.24C7.32333 5.06667 7.02 4.98 6.64 4.98C5.92 4.98 5.37667 5.23667 5.01 5.75L4.04 5.12C4.32667 4.72667 4.69667 4.42667 5.15 4.22C5.60333 4.00667 6.13667 3.9 6.75 3.9C7.49667 3.9 8.09 4.06333 8.53 4.39C8.97667 4.71 9.2 5.15333 9.2 5.72C9.2 5.99333 9.15333 6.23333 9.06 6.44C8.97333 6.64667 8.86667 6.82333 8.74 6.97C8.61333 7.11 8.44667 7.27333 8.24 7.46C7.98667 7.68667 7.79667 7.88667 7.67 8.06C7.55 8.23333 7.49 8.44 7.49 8.68H6.22ZM6.86 11.07C6.62667 11.07 6.43333 10.9967 6.28 10.85C6.13333 10.6967 6.06 10.51 6.06 10.29C6.06 10.07 6.13333 9.88667 6.28 9.74C6.43333 9.59333 6.62667 9.52 6.86 9.52C7.08667 9.52 7.27333 9.59333 7.42 9.74C7.57333 9.88667 7.65 10.07 7.65 10.29C7.65 10.51 7.57333 10.6967 7.42 10.85C7.27333 10.9967 7.08667 11.07 6.86 11.07Z" fill="#C4C4C4"/>
</svg>
