<svg width="176" height="54" viewBox="0 0 176 54" fill="none" xmlns="http://www.w3.org/2000/svg">
<path d="M8.41 21L0.636 2.8H6.2L12.752 18.556H9.476L16.184 2.8H21.28L13.48 21H8.41ZM29.6764 21V18.374L29.3384 17.724V12.888C29.3384 12.108 29.0957 11.51 28.6104 11.094C28.1424 10.6607 27.3884 10.444 26.3484 10.444C25.6724 10.444 24.9877 10.5567 24.2944 10.782C23.601 10.99 23.0117 11.2847 22.5264 11.666L20.8624 8.312C21.6597 7.792 22.613 7.39333 23.7224 7.116C24.849 6.82133 25.967 6.674 27.0764 6.674C29.3644 6.674 31.1324 7.20267 32.3804 8.26C33.6457 9.3 34.2784 10.938 34.2784 13.174V21H29.6764ZM25.5164 21.234C24.3897 21.234 23.4364 21.0433 22.6564 20.662C21.8764 20.2807 21.2784 19.7607 20.8624 19.102C20.4637 18.4433 20.2644 17.7067 20.2644 16.892C20.2644 16.0253 20.481 15.28 20.9144 14.656C21.365 14.0147 22.0497 13.5293 22.9684 13.2C23.887 12.8533 25.0744 12.68 26.5304 12.68H29.8584V15.254H27.2064C26.409 15.254 25.8457 15.384 25.5164 15.644C25.2044 15.904 25.0484 16.2507 25.0484 16.684C25.0484 17.1173 25.213 17.464 25.5424 17.724C25.8717 17.984 26.3224 18.114 26.8944 18.114C27.4317 18.114 27.917 17.984 28.3504 17.724C28.801 17.4467 29.1304 17.0307 29.3384 16.476L30.0144 18.296C29.7544 19.2667 29.243 20.0033 28.4804 20.506C27.735 20.9913 26.747 21.234 25.5164 21.234ZM37.3965 21V1.708H42.3365V21H37.3965ZM52.9309 21.234C51.2669 21.234 49.8109 20.922 48.5629 20.298C47.3323 19.6567 46.3703 18.79 45.6769 17.698C45.0009 16.5887 44.6629 15.332 44.6629 13.928C44.6629 12.524 44.9923 11.276 45.6509 10.184C46.3269 9.07467 47.2543 8.21667 48.4329 7.61C49.6116 6.986 50.9376 6.674 52.4109 6.674C53.7976 6.674 55.0629 6.96 56.2069 7.532C57.3509 8.08667 58.2609 8.91 58.9369 10.002C59.6129 11.094 59.9509 12.42 59.9509 13.98C59.9509 14.1533 59.9423 14.3527 59.9249 14.578C59.9076 14.8033 59.8903 15.0113 59.8729 15.202H48.7189V12.602H57.2469L55.3749 13.33C55.3923 12.6887 55.2709 12.134 55.0109 11.666C54.7683 11.198 54.4216 10.834 53.9709 10.574C53.5376 10.314 53.0263 10.184 52.4369 10.184C51.8476 10.184 51.3276 10.314 50.8769 10.574C50.4436 10.834 50.1056 11.2067 49.8629 11.692C49.6203 12.16 49.4989 12.7147 49.4989 13.356V14.11C49.4989 14.8033 49.6376 15.4013 49.9149 15.904C50.2096 16.4067 50.6256 16.7967 51.1629 17.074C51.7003 17.334 52.3416 17.464 53.0869 17.464C53.7803 17.464 54.3696 17.3687 54.8549 17.178C55.3576 16.97 55.8516 16.658 56.3369 16.242L58.9369 18.946C58.2609 19.6913 57.4289 20.2633 56.4409 20.662C55.4529 21.0433 54.2829 21.234 52.9309 21.234ZM71.4066 6.674C72.4986 6.674 73.4866 6.89933 74.3706 7.35C75.2546 7.78333 75.9479 8.45933 76.4506 9.378C76.9706 10.2967 77.2306 11.484 77.2306 12.94V21H72.2906V13.746C72.2906 12.7407 72.0826 12.0127 71.6666 11.562C71.2679 11.094 70.7046 10.86 69.9766 10.86C69.4566 10.86 68.9799 10.9813 68.5466 11.224C68.1132 11.4493 67.7752 11.8047 67.5326 12.29C67.2899 12.7753 67.1686 13.408 67.1686 14.188V21H62.2286V6.908H66.9346V10.912L66.0246 9.742C66.5619 8.71933 67.2986 7.95667 68.2346 7.454C69.1706 6.934 70.2279 6.674 71.4066 6.674ZM86.6241 21.234C84.8214 21.234 83.4174 20.792 82.4121 19.908C81.4068 19.0067 80.9041 17.6547 80.9041 15.852V3.762H85.8441V15.8C85.8441 16.3027 85.9828 16.7013 86.2601 16.996C86.5374 17.2733 86.8928 17.412 87.3261 17.412C87.9154 17.412 88.4181 17.2647 88.8341 16.97L90.0561 20.428C89.6401 20.7053 89.1288 20.9047 88.5221 21.026C87.9154 21.1647 87.2828 21.234 86.6241 21.234ZM78.8501 11.12V7.428H89.0681V11.12H78.8501ZM91.961 21V6.908H96.901V21H91.961ZM94.431 5.348C93.5297 5.348 92.8017 5.09667 92.247 4.594C91.6923 4.09133 91.415 3.46733 91.415 2.722C91.415 1.97667 91.6923 1.35267 92.247 0.849999C92.8017 0.347333 93.5297 0.0959995 94.431 0.0959995C95.3323 0.0959995 96.0603 0.338666 96.615 0.823999C97.1697 1.292 97.447 1.89867 97.447 2.644C97.447 3.424 97.1697 4.074 96.615 4.594C96.0777 5.09667 95.3497 5.348 94.431 5.348ZM109.289 6.674C110.381 6.674 111.369 6.89933 112.253 7.35C113.137 7.78333 113.831 8.45933 114.333 9.378C114.853 10.2967 115.113 11.484 115.113 12.94V21H110.173V13.746C110.173 12.7407 109.965 12.0127 109.549 11.562C109.151 11.094 108.587 10.86 107.859 10.86C107.339 10.86 106.863 10.9813 106.429 11.224C105.996 11.4493 105.658 11.8047 105.415 12.29C105.173 12.7753 105.051 13.408 105.051 14.188V21H100.111V6.908H104.817V10.912L103.907 9.742C104.445 8.71933 105.181 7.95667 106.117 7.454C107.053 6.934 108.111 6.674 109.289 6.674ZM126.821 21V18.374L126.483 17.724V12.888C126.483 12.108 126.24 11.51 125.755 11.094C125.287 10.6607 124.533 10.444 123.493 10.444C122.817 10.444 122.132 10.5567 121.439 10.782C120.746 10.99 120.156 11.2847 119.671 11.666L118.007 8.312C118.804 7.792 119.758 7.39333 120.867 7.116C121.994 6.82133 123.112 6.674 124.221 6.674C126.509 6.674 128.277 7.20267 129.525 8.26C130.79 9.3 131.423 10.938 131.423 13.174V21H126.821ZM122.661 21.234C121.534 21.234 120.581 21.0433 119.801 20.662C119.021 20.2807 118.423 19.7607 118.007 19.102C117.608 18.4433 117.409 17.7067 117.409 16.892C117.409 16.0253 117.626 15.28 118.059 14.656C118.51 14.0147 119.194 13.5293 120.113 13.2C121.032 12.8533 122.219 12.68 123.675 12.68H127.003V15.254H124.351C123.554 15.254 122.99 15.384 122.661 15.644C122.349 15.904 122.193 16.2507 122.193 16.684C122.193 17.1173 122.358 17.464 122.687 17.724C123.016 17.984 123.467 18.114 124.039 18.114C124.576 18.114 125.062 17.984 125.495 17.724C125.946 17.4467 126.275 17.0307 126.483 16.476L127.159 18.296C126.899 19.2667 126.388 20.0033 125.625 20.506C124.88 20.9913 123.892 21.234 122.661 21.234ZM11.92 53.364C10.4813 53.364 9.14667 53.1387 7.916 52.688C6.68533 52.22 5.61933 51.5613 4.718 50.712C3.834 49.8627 3.14067 48.866 2.638 47.722C2.13533 46.5607 1.884 45.2867 1.884 43.9C1.884 42.5133 2.13533 41.248 2.638 40.104C3.14067 38.9427 3.84267 37.9373 4.744 37.088C5.64533 36.2387 6.71133 35.5887 7.942 35.138C9.19 34.67 10.5507 34.436 12.024 34.436C13.74 34.436 15.274 34.722 16.626 35.294C17.978 35.866 19.096 36.6893 19.98 37.764L16.704 40.728C16.08 40.052 15.404 39.5493 14.676 39.22C13.9653 38.8733 13.168 38.7 12.284 38.7C11.504 38.7 10.7933 38.8213 10.152 39.064C9.51067 39.3067 8.96467 39.662 8.514 40.13C8.06333 40.5807 7.708 41.1267 7.448 41.768C7.20533 42.392 7.084 43.1027 7.084 43.9C7.084 44.6627 7.20533 45.3647 7.448 46.006C7.708 46.6473 8.06333 47.202 8.514 47.67C8.96467 48.1207 9.502 48.476 10.126 48.736C10.7673 48.9787 11.4693 49.1 12.232 49.1C12.9947 49.1 13.74 48.9787 14.468 48.736C15.196 48.476 15.9327 48.0427 16.678 47.436L19.564 51.05C18.524 51.7953 17.3193 52.3673 15.95 52.766C14.5807 53.1647 13.2373 53.364 11.92 53.364ZM15.014 50.374V43.51H19.564V51.05L15.014 50.374ZM28.5218 53.234C27.3778 53.234 26.3465 53.0087 25.4278 52.558C24.5265 52.1073 23.8158 51.4053 23.2958 50.452C22.7931 49.4813 22.5418 48.2593 22.5418 46.786V38.908H27.4818V45.98C27.4818 47.072 27.6811 47.852 28.0798 48.32C28.4958 48.788 29.0765 49.022 29.8218 49.022C30.3071 49.022 30.7491 48.9093 31.1478 48.684C31.5465 48.4587 31.8671 48.1033 32.1098 47.618C32.3525 47.1153 32.4738 46.474 32.4738 45.694V38.908H37.4138V53H32.7078V49.022L33.6178 50.14C33.1325 51.18 32.4305 51.96 31.5118 52.48C30.5931 52.9827 29.5965 53.234 28.5218 53.234ZM47.9798 53.234C46.3158 53.234 44.8598 52.922 43.6118 52.298C42.3811 51.6567 41.4191 50.79 40.7258 49.698C40.0498 48.5887 39.7118 47.332 39.7118 45.928C39.7118 44.524 40.0411 43.276 40.6998 42.184C41.3758 41.0747 42.3031 40.2167 43.4818 39.61C44.6604 38.986 45.9864 38.674 47.4598 38.674C48.8464 38.674 50.1118 38.96 51.2558 39.532C52.3998 40.0867 53.3098 40.91 53.9858 42.002C54.6618 43.094 54.9998 44.42 54.9998 45.98C54.9998 46.1533 54.9911 46.3527 54.9738 46.578C54.9564 46.8033 54.9391 47.0113 54.9218 47.202H43.7678V44.602H52.2958L50.4238 45.33C50.4411 44.6887 50.3198 44.134 50.0598 43.666C49.8171 43.198 49.4704 42.834 49.0198 42.574C48.5864 42.314 48.0751 42.184 47.4858 42.184C46.8964 42.184 46.3764 42.314 45.9258 42.574C45.4924 42.834 45.1544 43.2067 44.9118 43.692C44.6691 44.16 44.5478 44.7147 44.5478 45.356V46.11C44.5478 46.8033 44.6864 47.4013 44.9638 47.904C45.2584 48.4067 45.6744 48.7967 46.2118 49.074C46.7491 49.334 47.3904 49.464 48.1358 49.464C48.8291 49.464 49.4184 49.3687 49.9038 49.178C50.4064 48.97 50.9004 48.658 51.3858 48.242L53.9858 50.946C53.3098 51.6913 52.4778 52.2633 51.4898 52.662C50.5018 53.0433 49.3318 53.234 47.9798 53.234ZM62.3994 53.234C61.2034 53.234 60.0334 53.0953 58.8894 52.818C57.7627 52.5407 56.8527 52.194 56.1594 51.778L57.6414 48.398C58.3001 48.7967 59.0714 49.1173 59.9554 49.36C60.8394 49.5853 61.7061 49.698 62.5554 49.698C63.3874 49.698 63.9594 49.6113 64.2714 49.438C64.6007 49.2647 64.7654 49.0307 64.7654 48.736C64.7654 48.4587 64.6094 48.2593 64.2974 48.138C64.0027 47.9993 63.6041 47.8953 63.1014 47.826C62.6161 47.7567 62.0787 47.6787 61.4894 47.592C60.9001 47.5053 60.3021 47.3927 59.6954 47.254C59.1061 47.098 58.5601 46.8727 58.0574 46.578C57.5721 46.266 57.1821 45.85 56.8874 45.33C56.5927 44.81 56.4454 44.1513 56.4454 43.354C56.4454 42.4527 56.7054 41.6553 57.2254 40.962C57.7627 40.2513 58.5427 39.6967 59.5654 39.298C60.5881 38.882 61.8361 38.674 63.3094 38.674C64.2974 38.674 65.2941 38.778 66.2994 38.986C67.3221 39.1767 68.1801 39.4713 68.8734 39.87L67.3914 43.224C66.6981 42.8253 66.0047 42.5567 65.3114 42.418C64.6181 42.262 63.9594 42.184 63.3354 42.184C62.5034 42.184 61.9141 42.2793 61.5674 42.47C61.2381 42.6607 61.0734 42.8947 61.0734 43.172C61.0734 43.4493 61.2207 43.666 61.5154 43.822C61.8101 43.9607 62.2001 44.0733 62.6854 44.16C63.1881 44.2293 63.7341 44.3073 64.3234 44.394C64.9127 44.4633 65.5021 44.576 66.0914 44.732C66.6981 44.888 67.2441 45.122 67.7294 45.434C68.2321 45.7287 68.6307 46.136 68.9254 46.656C69.2201 47.1587 69.3674 47.8087 69.3674 48.606C69.3674 49.4727 69.0987 50.2527 68.5614 50.946C68.0414 51.6393 67.2614 52.194 66.2214 52.61C65.1987 53.026 63.9247 53.234 62.3994 53.234ZM77.7882 53.234C75.9855 53.234 74.5815 52.792 73.5762 51.908C72.5708 51.0067 72.0682 49.6547 72.0682 47.852V35.762H77.0082V47.8C77.0082 48.3027 77.1468 48.7013 77.4242 48.996C77.7015 49.2733 78.0568 49.412 78.4902 49.412C79.0795 49.412 79.5822 49.2647 79.9982 48.97L81.2202 52.428C80.8042 52.7053 80.2928 52.9047 79.6862 53.026C79.0795 53.1647 78.4468 53.234 77.7882 53.234ZM70.0142 43.12V39.428H80.2322V43.12H70.0142ZM103.093 34.8H108.241V53H103.093V34.8ZM96.0735 53H90.9255V34.8H96.0735V53ZM103.457 45.902H95.7095V41.638H103.457V45.902ZM118.711 53.234C117.168 53.234 115.799 52.922 114.603 52.298C113.407 51.674 112.462 50.816 111.769 49.724C111.093 48.6147 110.755 47.3493 110.755 45.928C110.755 44.5067 111.093 43.25 111.769 42.158C112.462 41.066 113.407 40.2167 114.603 39.61C115.799 38.986 117.168 38.674 118.711 38.674C120.253 38.674 121.623 38.986 122.819 39.61C124.032 40.2167 124.977 41.066 125.653 42.158C126.329 43.25 126.667 44.5067 126.667 45.928C126.667 47.3493 126.329 48.6147 125.653 49.724C124.977 50.816 124.032 51.674 122.819 52.298C121.623 52.922 120.253 53.234 118.711 53.234ZM118.711 49.308C119.283 49.308 119.785 49.178 120.219 48.918C120.669 48.658 121.025 48.2767 121.285 47.774C121.545 47.254 121.675 46.6387 121.675 45.928C121.675 45.2173 121.545 44.6193 121.285 44.134C121.025 43.6313 120.669 43.25 120.219 42.99C119.785 42.73 119.283 42.6 118.711 42.6C118.156 42.6 117.653 42.73 117.203 42.99C116.769 43.25 116.414 43.6313 116.137 44.134C115.877 44.6193 115.747 45.2173 115.747 45.928C115.747 46.6387 115.877 47.254 116.137 47.774C116.414 48.2767 116.769 48.658 117.203 48.918C117.653 49.178 118.156 49.308 118.711 49.308ZM134.883 53.234C133.739 53.234 132.708 53.0087 131.789 52.558C130.888 52.1073 130.177 51.4053 129.657 50.452C129.154 49.4813 128.903 48.2593 128.903 46.786V38.908H133.843V45.98C133.843 47.072 134.042 47.852 134.441 48.32C134.857 48.788 135.438 49.022 136.183 49.022C136.668 49.022 137.11 48.9093 137.509 48.684C137.908 48.4587 138.228 48.1033 138.471 47.618C138.714 47.1153 138.835 46.474 138.835 45.694V38.908H143.775V53H139.069V49.022L139.979 50.14C139.494 51.18 138.792 51.96 137.873 52.48C136.954 52.9827 135.958 53.234 134.883 53.234ZM152.079 53.234C150.883 53.234 149.713 53.0953 148.569 52.818C147.442 52.5407 146.532 52.194 145.839 51.778L147.321 48.398C147.98 48.7967 148.751 49.1173 149.635 49.36C150.519 49.5853 151.386 49.698 152.235 49.698C153.067 49.698 153.639 49.6113 153.951 49.438C154.28 49.2647 154.445 49.0307 154.445 48.736C154.445 48.4587 154.289 48.2593 153.977 48.138C153.682 47.9993 153.284 47.8953 152.781 47.826C152.296 47.7567 151.758 47.6787 151.169 47.592C150.58 47.5053 149.982 47.3927 149.375 47.254C148.786 47.098 148.24 46.8727 147.737 46.578C147.252 46.266 146.862 45.85 146.567 45.33C146.272 44.81 146.125 44.1513 146.125 43.354C146.125 42.4527 146.385 41.6553 146.905 40.962C147.442 40.2513 148.222 39.6967 149.245 39.298C150.268 38.882 151.516 38.674 152.989 38.674C153.977 38.674 154.974 38.778 155.979 38.986C157.002 39.1767 157.86 39.4713 158.553 39.87L157.071 43.224C156.378 42.8253 155.684 42.5567 154.991 42.418C154.298 42.262 153.639 42.184 153.015 42.184C152.183 42.184 151.594 42.2793 151.247 42.47C150.918 42.6607 150.753 42.8947 150.753 43.172C150.753 43.4493 150.9 43.666 151.195 43.822C151.49 43.9607 151.88 44.0733 152.365 44.16C152.868 44.2293 153.414 44.3073 154.003 44.394C154.592 44.4633 155.182 44.576 155.771 44.732C156.378 44.888 156.924 45.122 157.409 45.434C157.912 45.7287 158.31 46.136 158.605 46.656C158.9 47.1587 159.047 47.8087 159.047 48.606C159.047 49.4727 158.778 50.2527 158.241 50.946C157.721 51.6393 156.941 52.194 155.901 52.61C154.878 53.026 153.604 53.234 152.079 53.234ZM168.56 53.234C166.896 53.234 165.44 52.922 164.192 52.298C162.961 51.6567 161.999 50.79 161.306 49.698C160.63 48.5887 160.292 47.332 160.292 45.928C160.292 44.524 160.621 43.276 161.28 42.184C161.956 41.0747 162.883 40.2167 164.062 39.61C165.241 38.986 166.567 38.674 168.04 38.674C169.427 38.674 170.692 38.96 171.836 39.532C172.98 40.0867 173.89 40.91 174.566 42.002C175.242 43.094 175.58 44.42 175.58 45.98C175.58 46.1533 175.571 46.3527 175.554 46.578C175.537 46.8033 175.519 47.0113 175.502 47.202H164.348V44.602H172.876L171.004 45.33C171.021 44.6887 170.9 44.134 170.64 43.666C170.397 43.198 170.051 42.834 169.6 42.574C169.167 42.314 168.655 42.184 168.066 42.184C167.477 42.184 166.957 42.314 166.506 42.574C166.073 42.834 165.735 43.2067 165.492 43.692C165.249 44.16 165.128 44.7147 165.128 45.356V46.11C165.128 46.8033 165.267 47.4013 165.544 47.904C165.839 48.4067 166.255 48.7967 166.792 49.074C167.329 49.334 167.971 49.464 168.716 49.464C169.409 49.464 169.999 49.3687 170.484 49.178C170.987 48.97 171.481 48.658 171.966 48.242L174.566 50.946C173.89 51.6913 173.058 52.2633 172.07 52.662C171.082 53.0433 169.912 53.234 168.56 53.234Z" fill="#585858"/>
</svg>
